<svg width="1920" height="469" viewBox="0 0 1920 469" fill="none" xmlns="http://www.w3.org/2000/svg">
<path d="M-7 407.688C82.0692 279.341 263.408 406.689 267.713 311.433C271.782 221.41 185.149 79.0793 137.112 115.536C82.0692 157.309 168.878 299.306 307.244 321.291C407.822 337.272 546.93 338.77 637 220.411" stroke="#F6E265" stroke-width="23" stroke-linecap="round"/>
<path d="M1260.76 227.477C1278.13 204.448 1345.68 152.977 1476.97 131.328C1608.25 109.679 1827.02 157.881 1920 184.688" stroke="#F6E265" stroke-width="23" stroke-linecap="round"/>
<path d="M891.256 299.937C893.423 299.937 895.089 300.937 896.256 302.937C897.589 304.937 898.256 307.687 898.256 311.187C898.256 317.687 896.673 322.854 893.506 326.687C877.006 346.854 859.423 356.937 840.756 356.937C824.589 356.937 811.673 350.687 802.006 338.187C792.339 325.687 787.506 307.771 787.506 284.437C787.506 278.771 787.756 273.104 788.256 267.437C777.256 269.437 765.256 270.937 752.256 271.937C743.589 272.604 737.673 273.021 734.506 273.187C731.173 290.187 726.506 311.021 720.506 335.687C717.006 350.187 710.339 357.437 700.506 357.437C689.839 357.437 684.506 352.604 684.506 342.937C684.506 340.771 684.923 337.771 685.756 333.937C691.423 311.104 695.923 291.771 699.256 275.937L687.256 276.437C681.756 276.437 677.756 275.521 675.256 273.687C672.756 271.687 671.506 268.521 671.506 264.187C671.506 258.687 673.089 254.687 676.256 252.187C679.423 249.521 684.673 248.021 692.006 247.687L705.256 247.187C709.589 223.687 711.756 205.771 711.756 193.437C711.756 185.604 710.589 180.271 708.256 177.437C705.923 174.604 702.839 173.187 699.006 173.187C687.339 173.187 674.173 182.937 659.506 202.437C657.339 205.271 654.923 206.687 652.256 206.687C649.923 206.687 647.923 205.604 646.256 203.437C644.589 201.271 643.756 198.521 643.756 195.187C643.756 190.021 645.839 184.521 650.006 178.687C657.339 168.521 666.589 160.187 677.756 153.687C688.923 147.021 700.256 143.687 711.756 143.687C722.589 143.687 730.923 147.437 736.756 154.937C742.756 162.271 745.756 173.771 745.756 189.437C745.756 203.271 743.756 222.021 739.756 245.687L764.256 244.437C774.756 243.937 783.756 243.104 791.256 241.937C794.256 223.604 798.839 206.437 805.006 190.437C811.173 174.437 818.839 161.437 828.006 151.437C837.173 141.437 847.423 136.437 858.756 136.437C867.089 136.437 873.673 139.771 878.506 146.437C883.339 152.937 885.756 161.521 885.756 172.187C885.756 213.521 864.673 242.187 822.506 258.187C822.006 264.854 821.756 271.771 821.756 278.937C821.756 296.437 823.923 308.854 828.256 316.187C832.589 323.521 838.673 327.187 846.506 327.187C853.339 327.187 859.589 325.437 865.256 321.937C870.923 318.271 877.339 312.104 884.506 303.437C886.506 301.104 888.756 299.937 891.256 299.937ZM857.506 158.187C853.839 158.187 849.923 161.521 845.756 168.187C841.756 174.854 837.923 183.937 834.256 195.437C830.589 206.937 827.673 219.521 825.506 233.187C838.839 227.687 848.673 219.854 855.006 209.687C861.339 199.521 864.506 186.437 864.506 170.437C864.506 166.604 863.839 163.604 862.506 161.437C861.173 159.271 859.506 158.187 857.506 158.187ZM1021.99 299.937C1024.15 299.937 1025.82 300.937 1026.99 302.937C1028.32 304.937 1028.99 307.687 1028.99 311.187C1028.99 317.854 1027.4 323.021 1024.24 326.687C1018.07 334.187 1009.32 341.104 997.988 347.437C986.822 353.771 974.822 356.937 961.988 356.937C944.488 356.937 930.905 352.187 921.238 342.687C911.572 333.187 906.738 320.187 906.738 303.687C906.738 292.187 909.155 281.521 913.988 271.687C918.822 261.687 925.488 253.771 933.988 247.937C942.655 242.104 952.405 239.187 963.238 239.187C972.905 239.187 980.655 242.104 986.488 247.937C992.322 253.604 995.238 261.354 995.238 271.187C995.238 282.687 991.072 292.604 982.738 300.937C974.572 309.104 960.655 315.604 940.988 320.437C945.155 328.104 953.072 331.937 964.738 331.937C972.238 331.937 980.738 329.354 990.238 324.187C999.905 318.854 1008.24 311.937 1015.24 303.437C1017.24 301.104 1019.49 299.937 1021.99 299.937ZM958.988 263.687C952.822 263.687 947.572 267.271 943.238 274.437C939.072 281.604 936.988 290.271 936.988 300.437V300.937C946.822 298.604 954.572 295.104 960.238 290.437C965.905 285.771 968.738 280.354 968.738 274.187C968.738 271.021 967.822 268.521 965.988 266.687C964.322 264.687 961.988 263.687 958.988 263.687ZM1103.38 299.937C1105.55 299.937 1107.22 300.937 1108.38 302.937C1109.72 304.937 1110.38 307.687 1110.38 311.187C1110.38 317.854 1108.8 323.021 1105.63 326.687C1098.47 335.521 1090.63 342.771 1082.13 348.437C1073.8 354.104 1064.3 356.937 1053.63 356.937C1038.97 356.937 1028.05 350.271 1020.88 336.937C1013.88 323.604 1010.38 306.354 1010.38 285.187C1010.38 264.854 1012.97 241.687 1018.13 215.687C1023.47 189.687 1031.22 167.354 1041.38 148.687C1051.72 130.021 1063.97 120.687 1078.13 120.687C1086.13 120.687 1092.38 124.437 1096.88 131.937C1101.55 139.271 1103.88 149.854 1103.88 163.687C1103.88 183.521 1098.38 206.521 1087.38 232.687C1076.38 258.854 1061.47 284.771 1042.63 310.437C1043.8 317.271 1045.72 322.187 1048.38 325.187C1051.05 328.021 1054.55 329.437 1058.88 329.437C1065.72 329.437 1071.72 327.521 1076.88 323.687C1082.05 319.687 1088.63 312.937 1096.63 303.437C1098.63 301.104 1100.88 299.937 1103.38 299.937ZM1072.63 145.437C1068.8 145.437 1064.47 152.354 1059.63 166.187C1054.8 180.021 1050.55 197.187 1046.88 217.687C1043.22 238.187 1041.22 257.854 1040.88 276.687C1052.72 257.187 1062.13 237.687 1069.13 218.187C1076.13 198.521 1079.63 180.604 1079.63 164.437C1079.63 151.771 1077.3 145.437 1072.63 145.437ZM1184.93 299.937C1187.09 299.937 1188.76 300.937 1189.93 302.937C1191.26 304.937 1191.93 307.687 1191.93 311.187C1191.93 317.854 1190.34 323.021 1187.18 326.687C1180.01 335.521 1172.18 342.771 1163.68 348.437C1155.34 354.104 1145.84 356.937 1135.18 356.937C1120.51 356.937 1109.59 350.271 1102.43 336.937C1095.43 323.604 1091.93 306.354 1091.93 285.187C1091.93 264.854 1094.51 241.687 1099.68 215.687C1105.01 189.687 1112.76 167.354 1122.93 148.687C1133.26 130.021 1145.51 120.687 1159.68 120.687C1167.68 120.687 1173.93 124.437 1178.43 131.937C1183.09 139.271 1185.43 149.854 1185.43 163.687C1185.43 183.521 1179.93 206.521 1168.93 232.687C1157.93 258.854 1143.01 284.771 1124.18 310.437C1125.34 317.271 1127.26 322.187 1129.93 325.187C1132.59 328.021 1136.09 329.437 1140.43 329.437C1147.26 329.437 1153.26 327.521 1158.43 323.687C1163.59 319.687 1170.18 312.937 1178.18 303.437C1180.18 301.104 1182.43 299.937 1184.93 299.937ZM1154.18 145.437C1150.34 145.437 1146.01 152.354 1141.18 166.187C1136.34 180.021 1132.09 197.187 1128.43 217.687C1124.76 238.187 1122.76 257.854 1122.43 276.687C1134.26 257.187 1143.68 237.687 1150.68 218.187C1157.68 198.521 1161.18 180.604 1161.18 164.437C1161.18 151.771 1158.84 145.437 1154.18 145.437ZM1213.97 356.937C1204.14 356.937 1195.72 354.521 1188.72 349.687C1181.89 344.687 1176.72 338.187 1173.22 330.187C1169.72 322.187 1167.97 313.604 1167.97 304.437C1167.97 291.771 1170.3 280.521 1174.97 270.687C1179.8 260.687 1186.3 252.937 1194.47 247.437C1202.64 241.771 1211.8 238.937 1221.97 238.937C1231.8 238.937 1240.22 241.437 1247.22 246.437C1254.22 251.271 1259.47 257.687 1262.97 265.687C1266.47 273.687 1268.22 282.271 1268.22 291.437C1268.22 304.104 1265.8 315.437 1260.97 325.437C1256.14 335.271 1249.55 343.021 1241.22 348.687C1233.05 354.187 1223.97 356.937 1213.97 356.937ZM1216.72 329.937C1222.39 329.937 1227.14 326.854 1230.97 320.687C1234.97 314.521 1236.97 305.521 1236.97 293.687C1236.97 284.521 1235.3 277.604 1231.97 272.937C1228.64 268.271 1224.64 265.937 1219.97 265.937C1213.97 265.937 1208.97 269.021 1204.97 275.187C1201.14 281.187 1199.22 290.187 1199.22 302.187C1199.22 311.687 1200.89 318.687 1204.22 323.187C1207.55 327.687 1211.72 329.937 1216.72 329.937Z" fill="#F6E265"/>
</svg>
