<svg width="50" height="50" fill="none" xmlns="http://www.w3.org/2000/svg"><circle cx="25" cy="25" r="25" fill="#333"/><circle cx="25" cy="25" r="22" stroke="#fff"/><circle cx="10.235" cy="28.125" r="1.235" fill="#fff"/><circle cx="39.886" cy="28.125" r="1.235" fill="#fff"/><path d="M16.43 21.622c0-2.12.424-5.512 1.696-5.512s1.272 3.392 1.272 5.512c0 2.12-.424 5.937-1.696 5.937s-1.272-3.816-1.272-5.937Z" fill="#fff" stroke="#fff"/><path d="M14.31 15.686c0-.424 0-5.512 2.969-5.512 2.968 0 3.392 4.24 3.392 5.088" stroke="#fff" stroke-linecap="round" stroke-linejoin="round"/><path d="M33.815 21.198c0-2.12-.425-5.512-1.697-5.512s-1.272 3.392-1.272 5.512c0 2.12.424 5.937 1.696 5.937 1.273 0 1.273-3.816 1.273-5.937Z" fill="#fff" stroke="#fff"/><path d="M35.935 15.262c0-.424 0-5.512-2.968-5.512s-3.392 4.24-3.392 5.088M23.075 31.913c-.083-.577.049-1.878 1.235-2.47 1.186-.594 1.977.576 2.224 1.235M14.921 30.925c.082.74-.05 2.52-1.236 3.706M35.696 31.666c-.082.741.05 2.52 1.236 3.706M14.674 33.395c1.647 1.4 5.98 4.2 10.13 4.2 4.151 0 9.142-2.47 11.119-3.705m-12.848 5.738c.494.33 2.026.84 4.2.247" stroke="#fff" stroke-linecap="round" stroke-linejoin="round"/></svg>